<svg width="88" height="88" viewBox="0 0 88 88" fill="none" xmlns="http://www.w3.org/2000/svg">
<g filter="url(#filter0_d_7_1679)">
<circle cx="40" cy="40" r="40" fill="#61B566"/>
</g>
<g filter="url(#filter1_d_7_1679)">
<path fill-rule="evenodd" clip-rule="evenodd" d="M63.1223 52.1001L60.8147 21.6L57.3701 21.8574V21.8438H22.4821L19.2219 21.6L16.9358 51.7922C16.8468 52.179 16.7998 52.5817 16.7998 52.9953C16.7998 55.9644 19.2217 58.3712 22.2092 58.3712L22.2092 58.4H57.3701V58.3666C57.5085 58.3771 57.6483 58.3825 57.7895 58.3825C60.7372 58.3825 63.1342 56.0393 63.1976 53.125L63.1998 53.1248L63.198 53.1013C63.1986 53.0698 63.1989 53.0382 63.1989 53.0066C63.1989 52.6977 63.1726 52.3948 63.1223 52.1001Z" fill="white"/>
</g>
<path fill-rule="evenodd" clip-rule="evenodd" d="M24.6807 37.0053C26.7602 44.7733 32.8299 50.395 39.9935 50.395C47.1572 50.395 53.2268 44.7733 55.3064 37.0053H51.8135C49.5067 42.8542 45.0781 46.8119 39.9935 46.8119C34.909 46.8119 30.4803 42.8542 28.1736 37.0053H24.6807Z" fill="#F3B33E"/>
<defs>
<filter id="filter0_d_7_1679" x="0" y="0" width="88" height="88" filterUnits="userSpaceOnUse" color-interpolation-filters="sRGB">
<feFlood flood-opacity="0" result="BackgroundImageFix"/>
<feColorMatrix in="SourceAlpha" type="matrix" values="0 0 0 0 0 0 0 0 0 0 0 0 0 0 0 0 0 0 127 0" result="hardAlpha"/>
<feOffset dx="4" dy="4"/>
<feGaussianBlur stdDeviation="2"/>
<feComposite in2="hardAlpha" operator="out"/>
<feColorMatrix type="matrix" values="0 0 0 0 0 0 0 0 0 0 0 0 0 0 0 0 0 0 0.25 0"/>
<feBlend mode="normal" in2="BackgroundImageFix" result="effect1_dropShadow_7_1679"/>
<feBlend mode="normal" in="SourceGraphic" in2="effect1_dropShadow_7_1679" result="shape"/>
</filter>
<filter id="filter1_d_7_1679" x="16.7998" y="21.6" width="54.3999" height="44.8" filterUnits="userSpaceOnUse" color-interpolation-filters="sRGB">
<feFlood flood-opacity="0" result="BackgroundImageFix"/>
<feColorMatrix in="SourceAlpha" type="matrix" values="0 0 0 0 0 0 0 0 0 0 0 0 0 0 0 0 0 0 127 0" result="hardAlpha"/>
<feOffset dx="4" dy="4"/>
<feGaussianBlur stdDeviation="2"/>
<feComposite in2="hardAlpha" operator="out"/>
<feColorMatrix type="matrix" values="0 0 0 0 0 0 0 0 0 0 0 0 0 0 0 0 0 0 0.25 0"/>
<feBlend mode="normal" in2="BackgroundImageFix" result="effect1_dropShadow_7_1679"/>
<feBlend mode="normal" in="SourceGraphic" in2="effect1_dropShadow_7_1679" result="shape"/>
</filter>
</defs>
</svg>
